<svg width="100" height="100" viewBox="0 0 100 100" xmlns="http://www.w3.org/2000/svg">
  <!-- AI Robot Brain (NVIDIA Isaac) icon -->
  <g stroke="#04F6F0" stroke-width="2" fill="none">
    <!-- Brain container -->
    <path d="M20,50 Q30,20 50,25 Q70,20 80,50 Q70,80 50,75 Q30,80 20,50" />
    
    <!-- Neural network -->
    <circle cx="35" cy="40" r="3" fill="#04F6F0" />
    <circle cx="65" cy="40" r="3" fill="#04F6F0" />
    <circle cx="50" cy="60" r="3" fill="#04F6F0" />
    <circle cx="30" cy="60" r="3" fill="#04F6F0" />
    <circle cx="70" cy="60" r="3" fill="#04F6F0" />
    
    <!-- Connections -->
    <line x1="35" y1="40" x2="65" y2="40" stroke="#7C4DFF" stroke-width="1" />
    <line x1="50" y1="60" x2="30" y2="60" stroke="#7C4DFF" stroke-width="1" />
    <line x1="50" y1="60" x2="70" y2="60" stroke="#7C4DFF" stroke-width="1" />
    <line x1="35" y1="40" x2="50" y2="60" stroke="#7C4DFF" stroke-width="1" />
    <line x1="65" y1="40" x2="50" y2="60" stroke="#7C4DFF" stroke-width="1" />
    <line x1="30" y1="60" x2="35" y2="40" stroke="#7C4DFF" stroke-width="1" />
    <line x1="70" y1="60" x2="65" y2="40" stroke="#7C4DFF" stroke-width="1" />
  </g>
</svg>