<svg width="400" height="300" viewBox="0 0 400 300" xmlns="http://www.w3.org/2000/svg">
  <defs>
    <linearGradient id="grad1" x1="0%" y1="0%" x2="100%" y2="100%">
      <stop offset="0%" style="stop-color:#071521;stop-opacity:1" />
      <stop offset="100%" style="stop-color:#01C9C9;stop-opacity:1" />
    </linearGradient>
  </defs>
  <!-- AI Brain container -->
  <rect x="80" y="60" width="240" height="180" rx="20" fill="url(#grad1)" stroke="#04F6F0" stroke-width="2"/>
  <text x="200" y="90" fill="#04F6F0" font-family="Arial" font-size="16" text-anchor="middle">AI Robot Brain</text>
  
  <!-- Neural network layers -->
  <!-- Input layer -->
  <circle cx="120" cy="130" r="8" fill="#7C4DFF" stroke="#04F6F0" stroke-width="1"/>
  <circle cx="120" cy="160" r="8" fill="#7C4DFF" stroke="#04F6F0" stroke-width="1"/>
  <circle cx="120" cy="190" r="8" fill="#7C4DFF" stroke="#04F6F0" stroke-width="1"/>
  
  <!-- Hidden layer -->
  <circle cx="200" cy="120" r="8" fill="#04F6F0" stroke="#7C4DFF" stroke-width="1"/>
  <circle cx="200" cy="150" r="8" fill="#04F6F0" stroke="#7C4DFF" stroke-width="1"/>
  <circle cx="200" cy="180" r="8" fill="#04F6F0" stroke="#7C4DFF" stroke-width="1"/>
  
  <!-- Output layer -->
  <circle cx="280" cy="130" r="8" fill="#7C4DFF" stroke="#04F6F0" stroke-width="1"/>
  <circle cx="280" cy="160" r="8" fill="#7C4DFF" stroke="#04F6F0" stroke-width="1"/>
  <circle cx="280" cy="190" r="8" fill="#7C4DFF" stroke="#04F6F0" stroke-width="1"/>
  
  <!-- Connections -->
  <line x1="128" y1="130" x2="192" y2="120" stroke="#7C4DFF" stroke-width="1"/>
  <line x1="128" y1="130" x2="192" y2="150" stroke="#7C4DFF" stroke-width="1"/>
  <line x1="128" y1="130" x2="192" y2="180" stroke="#7C4DFF" stroke-width="1"/>
  
  <line x1="128" y1="160" x2="192" y2="120" stroke="#7C4DFF" stroke-width="1"/>
  <line x1="128" y1="160" x2="192" y2="150" stroke="#7C4DFF" stroke-width="1"/>
  <line x1="128" y1="160" x2="192" y2="180" stroke="#7C4DFF" stroke-width="1"/>
  
  <line x1="128" y1="190" x2="192" y2="120" stroke="#7C4DFF" stroke-width="1"/>
  <line x1="128" y1="190" x2="192" y2="150" stroke="#7C4DFF" stroke-width="1"/>
  <line x1="128" y1="190" x2="192" y2="180" stroke="#7C4DFF" stroke-width="1"/>
  
  <line x1="208" y1="120" x2="272" y2="130" stroke="#04F6F0" stroke-width="1"/>
  <line x1="208" y1="120" x2="272" y2="160" stroke="#04F6F0" stroke-width="1"/>
  <line x1="208" y1="120" x2="272" y2="190" stroke="#04F6F0" stroke-width="1"/>
  
  <line x1="208" y1="150" x2="272" y2="130" stroke="#04F6F0" stroke-width="1"/>
  <line x1="208" y1="150" x2="272" y2="160" stroke="#04F6F0" stroke-width="1"/>
  <line x1="208" y1="150" x2="272" y2="190" stroke="#04F6F0" stroke-width="1"/>
  
  <line x1="208" y1="180" x2="272" y2="130" stroke="#04F6F0" stroke-width="1"/>
  <line x1="208" y1="180" x2="272" y2="160" stroke="#04F6F0" stroke-width="1"/>
  <line x1="208" y1="180" x2="272" y2="190" stroke="#04F6F0" stroke-width="1"/>
  
  <!-- Data flow -->
  <path d="M60,150 Q100,100 150,150" stroke="#04F6F0" stroke-width="2" fill="none" stroke-dasharray="5,5"/>
  <path d="M60,150 Q100,200 150,150" stroke="#04F6F0" stroke-width="2" fill="none" stroke-dasharray="5,5"/>
  <path d="M250,150 Q300,100 340,150" stroke="#7C4DFF" stroke-width="2" fill="none" stroke-dasharray="5,5"/>
  <path d="M250,150 Q300,200 340,150" stroke="#7C4DFF" stroke-width="2" fill="none" stroke-dasharray="5,5"/>
</svg>